<?xml version="1.0" encoding="UTF-8" standalone="no"?>
<!-- Created with Inkscape (http://www.inkscape.org/) -->

<svg
        xmlns="http://www.w3.org/2000/svg"
        version="1.2"
        width="2666.6667"
        height="2666.6667"
        viewBox="0 0 2666.6667 2666.6667">
    <g id="g914" transform="matrix(1.3333333,0,0,-1.3333333,0,2666.6667)">
        <g id="g916" transform="scale(0.1)">
            <g id="g918" transform="scale(1.22699)">
                <path
                        d="M 16300,0 H 0 V 16300 H 16300 V 0"
                        style="fill:#f8a00e;fill-opacity:1;fill-rule:nonzero;stroke:none"
                        id="path920"/>
            </g>
            <path
                    d="M 4748.62,8880.1 H 5810.97 V 8680.6 H 4993.99 V 8047 h 663.29 v -199.5 h -663.29 v -846.7 h -245.37 v 1879.3"
                    style="fill:#100f0d;fill-opacity:1;fill-rule:nonzero;stroke:none"
                    id="path922"/>
            <path
                    d="m 8307.93,7194.9 c 396.36,0 692.96,288.6 692.96,746.9 0,461.1 -296.6,746.9 -692.96,746.9 -396.36,0 -692.94,-285.8 -692.94,-746.9 0,-458.3 296.58,-746.9 692.94,-746.9 z m 0,-213 c -528.48,0 -943.71,396.4 -943.71,959.9 0,563.6 415.23,959.9 943.71,959.9 531.18,0 943.73,-396.3 943.73,-959.9 0,-563.5 -412.55,-959.9 -943.73,-959.9"
                    style="fill:#100f0d;fill-opacity:1;fill-rule:nonzero;stroke:none"
                    id="path924"/>
            <path
                    d="M 11530.3,8677.9 H 11169 v -711.8 h 361.3 c 277.7,0 399,151 399,361.3 0,213 -118.6,350.5 -399,350.5 z m 0,202.2 c 442.2,0 652.5,-245.3 652.5,-552.7 0,-240 -132.1,-469.1 -447.6,-539.3 l 471.9,-787.3 h -293.9 l -447.6,768.5 H 11169 v -768.5 h -245.4 v 1879.3 h 606.7"
                    style="fill:#100f0d;fill-opacity:1;fill-rule:nonzero;stroke:none"
                    id="path926"/>
            <path
                    d="m 14156.7,7858.3 v -857.5 h -245.4 v 1879.3 h 245.4 v -870.9 l 776.5,870.9 h 310.1 l -852,-941 860.1,-938.3 h -320.9 l -773.8,857.5"
                    style="fill:#100f0d;fill-opacity:1;fill-rule:nonzero;stroke:none"
                    id="path928"/>
            <path
                    d="m 4998.05,5506.5 c -144.91,0 -247.37,80.8 -249.43,199.8 H 4849 c 6.22,-60 48.65,-120.1 149.05,-120.1 91.09,0 144.9,51.8 144.9,120.1 0,194.6 -390.19,70.4 -390.19,338.4 0,119.1 96.24,199.8 239.08,199.8 137.65,0 227.7,-75.6 239.09,-185.3 h -103.51 c -6.2,48.7 -51.75,103.5 -139.72,104.6 -77.63,2 -138.7,-38.3 -138.7,-115.9 0,-186.4 389.17,-70.4 389.17,-337.5 0,-102.4 -83.83,-203.9 -240.12,-203.9"
                    style="fill:#100f0d;fill-opacity:1;fill-rule:nonzero;stroke:none"
                    id="path930"/>
            <path
                    d="m 6352.11,6235.2 h 104.54 l 178.01,-365.4 178.03,365.4 h 104.52 L 6682.27,5786 v -272.2 h -94.18 V 5786 l -235.98,449.2"
                    style="fill:#100f0d;fill-opacity:1;fill-rule:nonzero;stroke:none"
                    id="path932"/>
            <path
                    d="m 8280.6,5506.5 c -144.91,0 -247.37,80.8 -249.43,199.8 h 100.38 c 6.21,-60 48.65,-120.1 149.05,-120.1 91.08,0 144.89,51.8 144.89,120.1 0,194.6 -390.18,70.4 -390.18,338.4 0,119.1 96.24,199.8 239.07,199.8 137.66,0 227.71,-75.6 239.1,-185.3 h -103.51 c -6.21,48.7 -51.75,103.5 -139.72,104.6 -77.64,2 -138.7,-38.3 -138.7,-115.9 0,-186.4 389.17,-70.4 389.17,-337.5 0,-102.4 -83.84,-203.9 -240.12,-203.9"
                    style="fill:#100f0d;fill-opacity:1;fill-rule:nonzero;stroke:none"
                    id="path934"/>
            <path
                    d="m 9650.15,6235.2 h 488.55 v -76.6 H 9942 v -644.8 h -94.17 v 644.8 h -197.68 v 76.6"
                    style="fill:#100f0d;fill-opacity:1;fill-rule:nonzero;stroke:none"
                    id="path936"/>
            <path
                    d="m 11678,6158.6 h -294 v -241.2 h 262.9 v -77.6 H 11384 v -248.4 h 294 v -77.6 h -388.2 v 722.4 h 388.2 v -77.6"
                    style="fill:#100f0d;fill-opacity:1;fill-rule:nonzero;stroke:none"
                    id="path938"/>
            <path
                    d="m 12856.1,6230 h 101.4 l 264.9,-592 265,592 h 100.4 v -716.2 h -94.2 v 534.1 l -238,-534.1 h -66.3 l -239,535.1 v -535.1 h -94.2 V 6230"
                    style="fill:#100f0d;fill-opacity:1;fill-rule:nonzero;stroke:none"
                    id="path940"/>
            <path
                    d="m 15011.2,5506.5 c -144.8,0 -247.3,80.8 -249.4,199.8 h 100.4 c 6.2,-60 48.7,-120.1 149,-120.1 91.1,0 145,51.8 145,120.1 0,194.6 -390.2,70.4 -390.2,338.4 0,119.1 96.2,199.8 239,199.8 137.7,0 227.8,-75.6 239.1,-185.3 h -103.5 c -6.2,48.7 -51.7,103.5 -139.7,104.6 -77.6,2 -138.7,-38.3 -138.7,-115.9 0,-186.4 389.2,-70.4 389.2,-337.5 0,-102.4 -83.9,-203.9 -240.2,-203.9"
                    style="fill:#100f0d;fill-opacity:1;fill-rule:nonzero;stroke:none"
                    id="path942"/>
            <path
                    d="m 7859.51,10536.1 -328.84,328.8 2705.83,2705.9 328.9,-328.8 -2705.89,-2705.9"
                    style="fill:#100f0d;fill-opacity:1;fill-rule:nonzero;stroke:none"
                    id="path944"/>
            <path
                    d="m 8842.84,11519.6 c 2.73,2.4 4.03,3.9 4.03,3.9 l -328.59,329.1 c 16.89,16.8 172.88,165.7 446.71,201 154.55,19.9 316.43,0.4 481.13,-58.1 190.31,-67.5 385.28,-188.1 579.48,-358.2 356.5,-312.4 701,-475.2 1024,-483.7 359.6,-9.5 711.7,163.1 1076.4,527.8 l 328.8,-328.9 c -453.4,-453.4 -930.3,-676.7 -1417.5,-663.8 -227.9,6 -459.7,64.3 -689,173.1 -207.6,98.6 -419.31,241.8 -629.16,425.7 -245.3,214.9 -476.86,321.2 -669.65,307.4 -132.08,-9.5 -203.66,-72.6 -206.65,-75.3"
                    style="fill:#100f0d;fill-opacity:1;fill-rule:nonzero;stroke:none"
                    id="path946"/>
            <path
                    d="m 10251.8,13698.4 -101.1,101.1 694,694 101.1,-101.1 -694,-694"
                    style="fill:#100f0d;fill-opacity:1;fill-rule:nonzero;stroke:none"
                    id="path948"/>
            <path
                    d="m 10783.1,13167.1 -101.1,101.1 694,693.9 101.1,-101 -694,-694"
                    style="fill:#100f0d;fill-opacity:1;fill-rule:nonzero;stroke:none"
                    id="path950"/>
            <path
                    d="m 10749.4,13382.2 -373.2,373.2 -90.7,-90.7 373.2,-373.2 90.7,90.7"
                    style="fill:#100f0d;fill-opacity:1;fill-rule:nonzero;stroke:none"
                    id="path952"/>
            <path
                    d="m 11458.3,14091.1 -373.2,373.2 -90.7,-90.7 373.2,-373.2 90.7,90.7"
                    style="fill:#100f0d;fill-opacity:1;fill-rule:nonzero;stroke:none"
                    id="path954"/>
            <path
                    d="m 10736.8,14047.1 -34.4,34.5 239.9,239.9 34.5,-34.4 -240,-240"
                    style="fill:#100f0d;fill-opacity:1;fill-rule:nonzero;stroke:none"
                    id="path956"/>
            <path
                    d="m 10849.7,13934.2 -34.4,34.5 239.9,239.9 34.5,-34.5 -240,-239.9"
                    style="fill:#100f0d;fill-opacity:1;fill-rule:nonzero;stroke:none"
                    id="path958"/>
            <path
                    d="m 10962.7,13821.3 -34.5,34.5 239.9,239.9 34.5,-34.5 -239.9,-239.9"
                    style="fill:#100f0d;fill-opacity:1;fill-rule:nonzero;stroke:none"
                    id="path960"/>
            <path
                    d="m 11075.6,13708.4 -34.5,34.5 239.9,239.9 34.5,-34.5 -239.9,-239.9"
                    style="fill:#100f0d;fill-opacity:1;fill-rule:nonzero;stroke:none"
                    id="path962"/>
            <path
                    d="m 12156.8,11793.4 -101.1,101.1 694,694 101.1,-101.1 -694,-694"
                    style="fill:#100f0d;fill-opacity:1;fill-rule:nonzero;stroke:none"
                    id="path964"/>
            <path
                    d="m 12688.1,11262.1 -101.1,101.1 694,694 101.1,-101.1 -694,-694"
                    style="fill:#100f0d;fill-opacity:1;fill-rule:nonzero;stroke:none"
                    id="path966"/>
            <path
                    d="m 12654.4,11477.2 -373.2,373.2 -90.7,-90.7 373.2,-373.2 90.7,90.7"
                    style="fill:#100f0d;fill-opacity:1;fill-rule:nonzero;stroke:none"
                    id="path968"/>
            <path
                    d="m 13363.3,12186.1 -373.2,373.2 -90.8,-90.7 373.3,-373.2 90.7,90.7"
                    style="fill:#100f0d;fill-opacity:1;fill-rule:nonzero;stroke:none"
                    id="path970"/>
            <path
                    d="m 12641.8,12142.1 -34.5,34.5 240,239.9 34.5,-34.4 -240,-240"
                    style="fill:#100f0d;fill-opacity:1;fill-rule:nonzero;stroke:none"
                    id="path972"/>
            <path
                    d="m 12754.7,12029.2 -34.4,34.5 239.9,239.9 34.5,-34.4 -240,-240"
                    style="fill:#100f0d;fill-opacity:1;fill-rule:nonzero;stroke:none"
                    id="path974"/>
            <path
                    d="m 12867.7,11916.3 -34.5,34.5 239.9,239.9 34.5,-34.5 -239.9,-239.9"
                    style="fill:#100f0d;fill-opacity:1;fill-rule:nonzero;stroke:none"
                    id="path976"/>
            <path
                    d="m 12980.6,11803.4 -34.5,34.5 239.9,239.9 34.5,-34.5 -239.9,-239.9"
                    style="fill:#100f0d;fill-opacity:1;fill-rule:nonzero;stroke:none"
                    id="path978"/>
            <path
                    d="m 7412.97,10848.7 -101.09,101 -693.96,-693.9 101.08,-101.1 693.97,694"
                    style="fill:#100f0d;fill-opacity:1;fill-rule:nonzero;stroke:none"
                    id="path980"/>
            <path
                    d="m 7944.29,10317.3 -101.08,101.1 -693.96,-694 101.08,-101 693.96,693.9"
                    style="fill:#100f0d;fill-opacity:1;fill-rule:nonzero;stroke:none"
                    id="path982"/>
            <path
                    d="m 7729.17,10351 -373.22,373.2 90.71,90.8 373.22,-373.3 -90.71,-90.7"
                    style="fill:#100f0d;fill-opacity:1;fill-rule:nonzero;stroke:none"
                    id="path984"/>
            <path
                    d="m 7020.3,9642.2 -373.22,373.2 90.72,90.7 373.22,-373.2 -90.72,-90.7"
                    style="fill:#100f0d;fill-opacity:1;fill-rule:nonzero;stroke:none"
                    id="path986"/>
            <path
                    d="m 7064.28,10363.6 -34.48,34.5 -239.94,-239.9 34.48,-34.5 239.94,239.9"
                    style="fill:#100f0d;fill-opacity:1;fill-rule:nonzero;stroke:none"
                    id="path988"/>
            <path
                    d="m 7177.2,10250.7 -34.49,34.5 -239.94,-240 34.49,-34.4 239.94,239.9"
                    style="fill:#100f0d;fill-opacity:1;fill-rule:nonzero;stroke:none"
                    id="path990"/>
            <path
                    d="m 7290.11,10137.8 -34.48,34.5 -239.95,-240 34.49,-34.5 239.94,240"
                    style="fill:#100f0d;fill-opacity:1;fill-rule:nonzero;stroke:none"
                    id="path992"/>
            <path
                    d="m 7403.02,10024.9 -34.48,34.5 -239.94,-240 34.48,-34.5 239.94,240"
                    style="fill:#100f0d;fill-opacity:1;fill-rule:nonzero;stroke:none"
                    id="path994"/>
        </g>
    </g>
</svg>